HIERARCHY
ROOT Hips
{
	OFFSET 0.000000 0.000000 0.000000
	CHANNELS 6 Xposition Yposition Zposition Zrotation Yrotation Xrotation 
	JOINT LHipJoint
	{
		OFFSET 0.000000 0.000000 0.000000
		CHANNELS 3 Zrotation Yrotation Xrotation
		JOINT LeftUpLeg
		{
			OFFSET 1.363060 -1.794630 0.839290
			CHANNELS 3 Zrotation Yrotation Xrotation
			JOINT LeftLeg
			{
				OFFSET 2.448110 -6.726130 0.000000
				CHANNELS 3 Zrotation Yrotation Xrotation
				JOINT LeftFoot
				{
					OFFSET 2.562200 -7.039590 0.000000
					CHANNELS 3 Zrotation Yrotation Xrotation
					JOINT LeftToeBase
					{
						OFFSET 0.157640 -0.433110 2.322550
						CHANNELS 3 Zrotation Yrotation Xrotation
						End Site
						{
							OFFSET 0.000000 0.000000 0.000000
						}
					}
				}
			}
		}
	}
	JOINT RHipJoint
	{
		OFFSET 0.000000 0.000000 0.000000
		CHANNELS 3 Zrotation Yrotation Xrotation
		JOINT RightUpLeg
		{
			OFFSET -1.305520 -1.794630 0.839290
			CHANNELS 3 Zrotation Yrotation Xrotation
			JOINT RightLeg
			{
				OFFSET -2.542530 -6.985550 0.000000
				CHANNELS 3 Zrotation Yrotation Xrotation
				JOINT RightFoot
				{
					OFFSET -2.568260 -7.056230 0.000000
					CHANNELS 3 Zrotation Yrotation Xrotation
					JOINT RightToeBase
					{
						OFFSET -0.164730 -0.452590 2.363150
						CHANNELS 3 Zrotation Yrotation Xrotation
						End Site
						{
							OFFSET 0.000000 0.000000 0.000000
						}
					}
				}
			}
		}
	}
	JOINT LowerBack
	{
		OFFSET 0.000000 0.000000 0.000000
		CHANNELS 3 Zrotation Yrotation Xrotation
		JOINT Spine
		{
			OFFSET 0.028270 2.035590 -0.193380
			CHANNELS 3 Zrotation Yrotation Xrotation
			JOINT Spine1
			{
				OFFSET 0.056720 2.048850 -0.042750
				CHANNELS 3 Zrotation Yrotation Xrotation
				JOINT Neck
				{
					OFFSET 0.000000 0.000000 0.000000
					CHANNELS 3 Zrotation Yrotation Xrotation
					JOINT Neck1
					{
						OFFSET -0.054170 1.746240 0.172020
						CHANNELS 3 Zrotation Yrotation Xrotation
						JOINT Head
						{
							OFFSET 0.104070 1.761360 -0.123970
							CHANNELS 3 Zrotation Yrotation Xrotation
							End Site
							{
								OFFSET 0.000000 0.000000 0.000000
							}
						}
					}
				}
				JOINT LeftShoulder
				{
					OFFSET 0.000000 0.000000 0.000000
					CHANNELS 3 Zrotation Yrotation Xrotation
					JOINT LeftArm
					{
						OFFSET 3.362410 1.200890 -0.311210
						CHANNELS 3 Zrotation Yrotation Xrotation
						JOINT LeftForeArm
						{
							OFFSET 4.983000 -0.000000 -0.000000
							CHANNELS 3 Zrotation Yrotation Xrotation
							JOINT LeftHand
							{
								OFFSET 3.483560 -0.000000 -0.000000
								CHANNELS 3 Zrotation Yrotation Xrotation
								JOINT LeftFingerBase
								{
									OFFSET 0.000000 0.000000 0.000000
									CHANNELS 3 Zrotation Yrotation Xrotation
									JOINT LeftHandIndex1
									{
										OFFSET 0.715260 -0.000000 -0.000000
										CHANNELS 3 Zrotation Yrotation Xrotation
										End Site
										{
											OFFSET 0.000000 0.000000 0.000000
										}
									}
								}
								JOINT LThumb
								{
									OFFSET 0.000000 0.000000 0.000000
									CHANNELS 3 Zrotation Yrotation Xrotation
									End Site
									{
										OFFSET 0.000000 0.000000 0.000000
									}
								}
							}
						}
					}
				}
				JOINT RightShoulder
				{
					OFFSET 0.000000 0.000000 0.000000
					CHANNELS 3 Zrotation Yrotation Xrotation
					JOINT RightArm
					{
						OFFSET -3.136600 1.374050 -0.404650
						CHANNELS 3 Zrotation Yrotation Xrotation
						JOINT RightForeArm
						{
							OFFSET -5.241900 -0.000000 -0.000000
							CHANNELS 3 Zrotation Yrotation Xrotation
							JOINT RightHand
							{
								OFFSET -3.444170 -0.000000 -0.000000
								CHANNELS 3 Zrotation Yrotation Xrotation
								JOINT RightFingerBase
								{
									OFFSET 0.000000 0.000000 0.000000
									CHANNELS 3 Zrotation Yrotation Xrotation
									JOINT RightHandIndex1
									{
										OFFSET -0.622530 -0.000000 -0.000000
										CHANNELS 3 Zrotation Yrotation Xrotation
										End Site
										{
											OFFSET 0.000000 0.000000 0.000000
										}
									}
								}
								JOINT RThumb
								{
									OFFSET 0.000000 0.000000 0.000000
									CHANNELS 3 Zrotation Yrotation Xrotation
									End Site
									{
										OFFSET 0.000000 0.000000 0.000000
									}
								}
							}
						}
					}
				}
			}
		}
	}
}
MOTION
Frames: 5
Frame Time: 0.008333
1.748834 17.406838 -35.236905 -5.809741 5.877881 17.758791 1.440880 -1.780817 -0.691847 -18.942806 -11.989015 -29.619839 0.628328 12.350547 32.679260 -2.841045 15.613740 -26.203168 0.155100 2.537300 6.993100 -4.534511 1.158446 -0.256823 17.153386 22.426007 -60.808847 -2.509085 -15.963486 35.621077 13.597858 -41.971451 -11.471915 -4.533400 -12.838200 38.765900 4.223197 1.436885 -6.615194 1.223317 1.212027 -6.298621 -0.210222 0.580448 -5.546436 -2.089213 -3.239016 -15.815223 7.748081 -3.752228 19.193811 1.894800 -0.799400 16.629700 -3.268565 -12.205376 2.949200 30.860143 -7.770419 -47.495734 11.748124 -21.251380 -3.333920 1.451971 -3.519782 18.932442 -3.206465 15.269314 -1.773200 -7.125000 0.000000 0.000000 -31.085100 45.536300 -0.456500 4.191299 14.454400 3.373131 -29.538983 6.457924 -40.723477 -9.023530 18.599001 -3.427971 -1.324032 2.394915 5.546772 6.602995 7.711320 0.777200 7.125000 0.000000 0.000000 25.261600 -24.344800 13.953800 
1.750232 17.412107 -35.222497 -5.729903 6.067029 17.810733 1.431456 -1.783821 -0.715943 -19.039798 -11.868750 -29.562910 0.605717 12.307663 32.558259 -2.889629 15.618671 -25.941549 0.143900 2.444900 6.736900 -4.549070 1.142507 -0.266404 16.750987 22.594031 -60.890262 -2.461275 -15.974089 35.705757 13.385065 -41.414517 -12.940499 -4.642800 -12.969900 39.255800 4.124175 1.355023 -6.964354 1.256498 1.063106 -6.239260 -0.093099 0.528242 -5.062211 -2.130366 -3.204445 -15.752282 7.707057 -3.698285 19.034492 1.843700 -0.794000 16.418400 -3.045217 -12.123255 2.971115 32.018744 -8.041821 -49.504594 12.172738 -22.146378 -3.515515 1.479793 -3.440544 18.319062 -2.629509 15.320172 -1.583100 -7.125000 0.000000 0.000000 -30.573800 45.612700 -0.510900 3.964032 14.351035 3.313311 -30.638592 6.793776 -42.970343 -9.175652 19.212523 -3.521333 -1.245241 2.381530 5.688864 6.783554 7.944503 0.822400 7.125000 0.000000 0.000000 25.283800 -24.120700 14.117300 
1.753135 17.415762 -35.213357 -5.751181 6.375744 17.857539 1.425952 -1.771170 -0.676980 -18.996978 -11.777598 -29.672244 0.599706 12.286889 32.486760 -3.046458 15.873284 -25.615015 0.102000 2.059800 5.670900 -4.557526 1.132720 -0.207706 16.300577 22.849225 -61.048196 -2.434830 -15.985467 35.732021 13.314805 -41.247883 -13.776086 -4.660400 -12.990900 39.334300 4.330243 1.286309 -6.564875 1.261989 1.017935 -6.405363 -0.361868 0.479759 -5.974906 -2.110375 -3.268018 -15.088954 7.712841 -3.807408 19.012469 1.820600 -0.830900 16.303600 -2.968934 -12.235752 2.935954 33.062858 -8.542523 -50.262284 12.709777 -23.200854 -3.809832 1.531982 -3.353903 17.190324 -2.736197 14.740172 -1.553300 -7.125000 0.000000 0.000000 -30.330400 45.055700 -0.046100 3.846304 14.493332 3.296437 -31.317336 6.948856 -43.848327 -9.461478 19.825847 -3.687716 -1.213835 2.387108 5.728872 7.207396 8.286416 0.912400 7.125000 0.000000 0.000000 25.480700 -23.805600 14.463100 
1.751200 17.417160 -35.204754 -5.695209 6.742221 17.977902 1.430124 -1.761240 -0.656621 -19.001147 -11.749044 -29.806197 0.587425 12.264347 32.386937 -3.159279 15.990989 -25.218202 0.069000 1.694500 4.662200 -4.571240 1.122216 -0.155333 15.623610 23.230395 -61.299488 -2.388991 -16.011353 35.811204 13.166133 -40.936713 -15.394644 -4.836100 -13.196800 40.109800 4.413577 1.244640 -6.370022 1.251482 1.007950 -6.534222 -0.671476 0.444005 -6.610167 -2.084139 -3.408872 -14.565897 7.770331 -4.028184 18.922932 1.822300 -0.906300 16.147300 -2.918369 -12.288301 2.927208 34.206010 -9.194364 -51.066469 13.319068 -24.374397 -4.118819 1.564528 -3.255119 15.901775 -2.595560 14.566095 -1.475200 -7.125000 0.000000 0.000000 -30.058000 44.886900 0.092600 3.720919 14.587695 3.290828 -31.974342 7.006361 -44.650504 -9.780299 20.432762 -3.844036 -1.178967 2.415726 5.483355 7.231693 8.423494 0.925500 7.125000 0.000000 0.000000 25.449600 -23.716100 14.501000 
1.748297 17.416838 -35.196690 -5.703826 6.807464 18.154538 1.434199 -1.769537 -0.666025 -18.912508 -11.810718 -29.953660 0.575464 12.258147 32.323126 -3.182519 15.991563 -25.083982 0.054800 1.510700 4.155200 -4.595396 1.111282 -0.132365 15.386224 23.393940 -61.535296 -2.336887 -16.020561 35.869362 12.863051 -40.306948 -16.591495 -5.130100 -13.528800 41.381700 4.347941 1.205643 -6.298956 1.282124 0.950609 -6.577993 -0.542204 0.430833 -6.652924 -2.092843 -3.383913 -14.807354 7.767416 -3.980022 18.839479 1.808400 -0.887200 16.206200 -2.791468 -12.260390 2.940994 35.232410 -9.474651 -52.456240 13.894799 -25.384779 -4.399444 1.588844 -3.195367 15.050607 -2.142033 14.585866 -1.329800 -7.125000 0.000000 0.000000 -29.647400 44.942200 0.046500 3.577460 14.563789 3.260013 -32.973639 7.168797 -45.558339 -10.190540 21.233578 -4.005239 -1.115434 2.470212 4.304820 6.831633 8.285678 0.839100 7.125000 0.000000 0.000000 25.156300 -23.935200 14.152200 
